<svg width="12" height="12" viewBox="0 0 12 12" fill="none" xmlns="http://www.w3.org/2000/svg">
<path d="M6.00001 0C3.79445 0 2 1.79445 2 4.00001C2 4.66212 2.16554 5.3186 2.48023 5.90088L5.78127 11.8711C5.82521 11.9507 5.90895 12 6.00001 12C6.09106 12 6.1748 11.9507 6.21875 11.8711L9.521 5.89891C9.83448 5.3186 10 4.66209 10 3.99998C10 1.79445 8.20557 0 6.00001 0ZM6.00001 6C4.89723 6 4.00002 5.10279 4.00002 4.00001C4.00002 2.89723 4.89723 2.00002 6.00001 2.00002C7.10279 2.00002 8 2.89723 8 4.00001C8 5.10279 7.10279 6 6.00001 6Z" fill="white"/>
</svg>
