<svg width="699" height="672" viewBox="0 0 699 672" fill="none" xmlns="http://www.w3.org/2000/svg">
<path d="M607.084 99.9199C619.546 113.53 624.307 133.083 622.161 156.874C620.015 180.665 610.964 208.639 595.874 239.003C565.695 299.729 511.41 369.918 440.161 435.156C368.913 500.394 294.224 548.3 231.081 573.024C199.508 585.387 170.846 591.944 146.959 591.99C123.071 592.037 104.013 585.575 91.5507 571.965C79.0886 558.355 74.3274 538.802 76.4733 515.011C78.6193 491.22 87.6702 463.246 102.76 432.882C132.939 372.156 187.224 301.967 258.473 236.729C329.722 171.491 404.41 123.585 467.553 98.8609C499.127 86.498 527.788 79.9412 551.676 79.8947C575.563 79.8482 594.622 86.3096 607.084 99.9199Z" stroke="#ECC9C5"/>
</svg>
