<svg width="464" height="241" viewBox="0 0 464 241" fill="none" xmlns="http://www.w3.org/2000/svg">
<path d="M461.055 226.307C457.58 233.835 447.985 238.268 433.27 239.65C418.596 241.029 399.021 239.353 375.899 234.868C329.662 225.9 269.353 205.72 205.94 176.449C142.527 147.178 88.047 114.371 51.2274 85.0003C32.8145 70.3127 18.8407 56.5025 10.3713 44.441C1.87787 32.3455 -0.973106 22.1673 2.50172 14.6395C5.97655 7.11164 15.572 2.67867 30.2869 1.29605C44.9604 -0.0826671 64.5353 1.59309 87.6578 6.07814C133.895 15.0467 194.204 35.226 257.617 64.4972C321.03 93.7685 375.51 126.576 412.329 155.946C430.742 170.634 444.716 184.444 453.185 196.505C461.679 208.601 464.53 218.779 461.055 226.307Z" stroke="#ECC9C5"/>
</svg>
