<svg width="538" height="125" viewBox="0 0 538 125" fill="none" xmlns="http://www.w3.org/2000/svg">
<path d="M537.5 62.5C537.5 66.6592 535.688 70.759 532.16 74.7655C528.628 78.7751 523.397 82.6666 516.62 86.3896C503.065 93.8353 483.419 100.557 459.099 106.207C410.466 117.507 343.256 124.5 269 124.5C194.744 124.5 127.534 117.507 78.9014 106.207C54.5812 100.557 34.9345 93.8353 21.3801 86.3896C14.6027 82.6666 9.3717 78.7751 5.84035 74.7655C2.31179 70.759 0.5 66.6592 0.5 62.5C0.5 58.3408 2.31179 54.241 5.84035 50.2345C9.3717 46.2249 14.6027 42.3334 21.3801 38.6104C34.9345 31.1647 54.5812 24.4435 78.9014 18.7929C127.534 7.49348 194.744 0.5 269 0.5C343.256 0.5 410.466 7.49348 459.099 18.7929C483.419 24.4435 503.065 31.1647 516.62 38.6104C523.397 42.3334 528.628 46.2249 532.16 50.2345C535.688 54.241 537.5 58.3408 537.5 62.5Z" stroke="#ECC9C5"/>
</svg>
