<svg width="330" height="125" viewBox="0 0 330 125" fill="none" xmlns="http://www.w3.org/2000/svg">
<path d="M329.5 62.5C329.5 70.9371 324.988 79.0332 316.7 86.4554C308.412 93.8773 296.392 100.584 281.496 106.227C251.706 117.51 210.519 124.5 165 124.5C119.481 124.5 78.2938 117.51 48.5045 106.227C33.6081 100.584 21.5876 93.8773 13.3001 86.4554C5.01231 79.0332 0.5 70.9371 0.5 62.5C0.5 54.0629 5.01231 45.9668 13.3001 38.5446C21.5876 31.1227 33.6081 24.416 48.5045 18.7734C78.2938 7.48957 119.481 0.5 165 0.5C210.519 0.5 251.706 7.48957 281.496 18.7734C296.392 24.416 308.412 31.1227 316.7 38.5446C324.988 45.9668 329.5 54.0629 329.5 62.5Z" stroke="#ECC9C5"/>
</svg>
