<svg width="111" height="73" viewBox="0 0 111 73" fill="none" xmlns="http://www.w3.org/2000/svg">
<path d="M85.9382 0.857422C71.7662 0.857422 60.5761 12.3479 60.5761 26.5199C60.5761 40.692 72.2155 52.1825 86.3876 52.1825C86.5293 52.1825 86.7432 52.1632 86.885 52.1608C81.2815 56.6229 74.2435 59.3117 66.54 59.3117C62.9957 59.3117 60.1436 62.1856 60.1436 65.7274C60.1436 69.2692 62.4239 72.143 65.9681 72.143C91.1236 72.1406 111 51.6755 111 26.5199C111 26.5151 111 26.5103 111 26.5031C111 12.3383 100.105 0.857422 85.9382 0.857422Z" fill="white"/>
<path d="M25.8307 0.857422C11.6587 0.857422 0.449334 12.3479 0.449334 26.5199C0.449334 40.692 12.0792 52.1825 26.2536 52.1825C26.3954 52.1825 26.6044 52.1632 26.7462 52.1608C21.1427 56.6229 14.1024 59.3117 6.39881 59.3117C2.85459 59.3117 0 62.1856 0 65.7274C0 69.2692 2.31635 72.143 5.86057 72.143C31.0161 72.1406 50.9286 51.6755 50.9286 26.5199C50.9286 26.5151 50.9286 26.5103 50.9286 26.5031C50.9286 12.3383 39.998 0.857422 25.8307 0.857422Z" fill="white"/>
</svg>
