<svg width="395" height="485" viewBox="0 0 395 485" fill="none" xmlns="http://www.w3.org/2000/svg">
<path d="M343.77 36.445C350.525 41.2525 353.107 51.5024 351.743 66.2191C350.384 80.8943 345.116 99.8214 336.43 121.715C319.063 165.495 288.076 221.03 247.579 277.933C207.082 334.837 164.762 382.307 129.087 413.058C111.247 428.436 95.0902 439.614 81.6702 445.706C68.2122 451.815 57.6822 452.734 50.9271 447.927C44.1721 443.119 41.5907 432.869 42.9541 418.153C44.3137 403.477 49.5817 384.55 58.2669 362.657C75.6341 318.877 106.622 263.342 147.119 206.438C187.616 149.535 229.935 102.064 265.61 71.3134C283.45 55.9354 299.607 44.7577 313.027 38.6657C326.485 32.5564 337.015 31.6376 343.77 36.445Z" stroke="#ECC9C5"/>
</svg>
