<svg width="577" height="641" viewBox="0 0 577 641" fill="none" xmlns="http://www.w3.org/2000/svg">
<path d="M565.992 8.60421C576.376 17.832 578.757 35.2992 573.892 59.2538C569.036 83.1676 556.993 113.359 538.817 147.797C502.469 216.667 441.647 302.417 364.961 388.714C288.276 475.012 210.268 545.491 146.149 589.682C114.086 611.78 85.5186 627.288 62.3413 634.921C39.1245 642.567 21.4986 642.256 11.1142 633.028C0.729759 623.801 -1.65098 606.333 3.21362 582.379C8.06994 558.465 20.1124 528.273 38.2883 493.835C74.6364 424.966 135.459 339.215 212.145 252.918C288.83 166.621 366.837 96.1412 430.957 51.9503C463.02 29.8526 491.587 14.345 514.764 6.71163C537.981 -0.934826 555.607 -0.623626 565.992 8.60421Z" stroke="#ECC9C5"/>
</svg>
