<svg width="792" height="669" viewBox="0 0 792 669" fill="none" xmlns="http://www.w3.org/2000/svg">
<path d="M728.675 586.024C720.297 597.105 703.072 600.859 678.808 597.903C654.585 594.952 623.536 585.334 587.769 569.937C516.243 539.145 425.953 485.291 333.865 415.666C241.776 346.041 165.351 273.849 116.231 213.422C91.668 183.206 73.951 155.954 64.5095 133.453C55.052 110.913 53.9691 93.3177 62.3473 82.2364C70.7255 71.1551 87.9498 67.4012 112.214 70.3572C136.437 73.3082 167.486 82.9267 203.253 98.3238C274.78 129.115 365.069 182.969 457.158 252.594C549.246 322.219 625.671 394.412 674.791 454.838C699.354 485.054 717.071 512.306 726.513 534.808C735.97 557.347 737.053 574.943 728.675 586.024Z" stroke="#ECC9C5"/>
</svg>
